<svg xmlns="http://www.w3.org/2000/svg" width="188" height="188" fill="none" viewBox="0 0 188 188">
<!-- SVG created with Arrow, by QuiverAI (https://quiver.ai) -->
  <path d="m10.93 135 14.57-23.32 1.89-1.54 2.09 1.44 3.81-7.01-2.48-1.76 15.52-42.05 1.33-0.49 2.35-9.11 3.53-2.69 6.98-18 2.63-2 0.21-2.28 10.05-7.81 0.37-1.51 15.93-9.77 1.9-1.01 21.2-1.37 0.64 0.06 0.4 0.2c0.97 1.57 1.59 5.43-1.32 8.7-2.9 3.27-8.09 4.02-12.46 4.37l-4.72 0.3-8.22 7.01 2.93 0.42 17.03-8.09 2.35 1.21 20.39 3.07c3.05 0.82 1.54 6.88-1.95 8.79-4.48 2.42-10.49 2.57-14.75 0.9l-2.93-1.45-11.02 7.15-2.02-0.34-0.95-1-6.08 18.67-1.99 1.54c1.67 1.85 3.17 5.89 0.81 10.93l-0.81 1.76-0.33 10.01 6.91 8.83 4.19 2.11 1.33 1 2.7-0.82 1.67-0.87 11.67-1.27 2.28-2.83c3.52-2.86 9.05-6.15 15.83-5.4 4.52 0.52 6.05 2.47 7.33 6.6l-0.43 0.81c-6.38 5.59-10.56 10.66-14.15 14.48l-1.6-0.1-2.93 3.35-1.74 0.13-17.22 6.52-1.33-0.68-1.48 1.76-2 0.07c-7.36 4.37-15.11 9.15-24.55 11.2l-1.83-1.83-4.4 3.21c-0.45 4.1-2.25 6.81-4.7 9.38l2.05 1.83-7.23 16.74h-47.25v-18.15z" fill="#011E32"/>
  <path d="m124.2 30.79v2.62h-2.76c-3.16 0-5.23 2.76-5.23 5.65v1.07h-3.81v1l3.81 0.41v2.14h-4.22v1l4.22 0.34v2.14h-4.22v1l4.22 0.49v2.07h-4.22v1l4.22 0.49v2.14l-3.81 0.41v1h3.81v2.15l-3.81 0.41v1h3.81v2.14l-4.22 0.49v1h4.22v2.14l-4.22 0.42v1h4.22v1.35c0 3.16 2.62 6.09 6.04 6.09h1.46v6.52h1l1.06-6.05h2.14l0.41 5.71h1l0.49-5.71h2.14l0.41 5.71h1l0.55-5.71h2.14l0.41 5.71h1l0.49-5.71h2.14l0.48 5.71h1l0.49-5.71h2.14l0.49 5.71h1l0.41-5.71h2.14l0.41 5.71h1l0.55-5.71h1.7l0.62 6.05h1v-6.52h0.62c3.3 0 5.74-2.69 5.74-5.62v-0.27h5.54v-1l-4.46-0.41v-1.6h4.46v-1l-4.46-0.41v-2.08h4.46v-1l-4.46-0.55v-2.07h4.46v-1l-4.46-0.49v-2.14h4.46v-1l-4.46-0.49v-2.14h4.46v-1l-4.46-0.48v-2.14h4.46v-1l-4.46-0.49v-2.14h4.46v-1l-4.46-0.41v-1.89h4.46v-1h-5.4v-0.88c0-2.93-2.69-5.31-5.49-5.31h-0.69v-4.71h-1l-0.81 4.71h-1.96l-0.41-4.71h-1l-0.62 4.71h-1.7l-0.49-4.71h-1l-0.55 4.71h-2.14l-0.41-4.71h-1l-0.62 4.71h-1.99l-0.49-4.71h-1l-0.62 4.71h-2.14l-0.42-4.71h-1l-0.75 4.71h-2.07l-0.82-4.49h-1v4.49h-2.63v-2.15h-1z" fill="url(#paint0_linear_290_5284)"/>
  <path d="m124.2 34.71h29.92c3.13 0 4.4 2.32 4.4 4.73v28.87c0 2.8-2.03 4.4-4.6 4.4h-29.72c-3.13 0-4.98-2.35-4.98-5.08v-28.5c0-2.66 1.85-4.42 4.98-4.42z" fill="url(#paint1_linear_290_5284)" stroke="#274A61" stroke-width="1.5"/>
  <path d="m124.7 36.93h28.5c2.42 0 3.45 1.69 3.45 3.58v27.11c0 2.21-1.54 3.28-3.39 3.28h-28.56c-2.41 0-3.55-1.67-3.55-3.69v-26.97c0-1.96 1.14-3.31 3.55-3.31z" fill="url(#paint2_linear_290_5284)" stroke="#426577" stroke-width=".75"/>
  <path d="m134.8 49.89h7.92v8.22h-7.92v-8.22z" fill="url(#paint3_linear_290_5284)" stroke="#628494" stroke-width=".5"/>
  <path d="m134.1 40.13-0.75 0.68 0.37 1.55 4.05 4v3.18" stroke="#628494" stroke-linecap="round" stroke-width="1.08"/>
  <path d="m127.9 41.75-0.27 0.96 1.07 0.96 5.1 5.12h1.4" stroke="#628494" stroke-linecap="round" stroke-width="1.08"/>
  <path d="m125.1 47.96 0.49-0.81 1.61 0.35 5.1 3.63h1.67" stroke="#628494" stroke-linecap="round" stroke-width="1.08"/>
  <path d="m125.4 53.82 0.62-0.62 1.27 0.49h6.12" stroke="#628494" stroke-linecap="round" stroke-width="1.08"/>
  <path d="m125.2 61.91 0.55 0.41 1.2-1.28 3.67-3.4h1.98" stroke="#628494" stroke-linecap="round" stroke-width="1.08"/>
  <path d="m133 67.12 0.71 0.12 0.56-1.83 3.59-4v-2.28" stroke="#628494" stroke-linecap="round" stroke-width="1.08"/>
  <path d="m144.7 39.86 0.82 0.85-0.55 1.58-5.03 5v2.05" stroke="#628494" stroke-linecap="round" stroke-width="1.08"/>
  <path d="m149.7 41.62 0.89 0.81-0.55 1.48-3.74 4.81v1.7" stroke="#628494" stroke-linecap="round" stroke-width="1.08"/>
  <path d="m152.1 47.02 0.56 0.62-1 1.01-4.56 4.56h-2.28" stroke="#628494" stroke-linecap="round" stroke-width="1.08"/>
  <path d="m152.8 53.96-0.52-0.75-1.53 0.41h-5.54" stroke="#628494" stroke-linecap="round" stroke-width="1.08"/>
  <path d="m152.9 61.04-0.62 0.62-1.34-1.41-4.04-3.36h-1.73" stroke="#628494" stroke-linecap="round" stroke-width="1.08"/>
  <path d="m145 67.44-0.82 0.21-0.71-2.21-3.71-3.63v-2.27" stroke="#628494" stroke-linecap="round" stroke-width="1.08"/>
  <circle cx="128.1" cy="41.82" r="1.542" fill="#628494"/>
  <circle cx="125.5" cy="47.5" r="1.542" fill="#628494"/>
  <circle cx="125.7" cy="53.82" r="1.542" fill="#628494"/>
  <circle cx="126" cy="60.39" r="1.542" fill="#628494"/>
  <circle cx="127.8" cy="66.24" r="1.542" fill="#628494"/>
  <circle cx="145" cy="39.93" r="1.542" fill="#628494"/>
  <circle cx="149.7" cy="42.3" r="1.542" fill="#628494"/>
  <circle cx="152.2" cy="47.16" r="1.542" fill="#628494"/>
  <circle cx="152.7" cy="54.03" r="1.542" fill="#628494"/>
  <circle cx="150.2" cy="66.03" r="1.542" fill="#628494"/>
  <circle cx="144.3" cy="67.51" r="1.542" fill="#628494"/>
  <circle cx="133.6" cy="39.93" r="1.542" fill="#628494"/>
  <path d="m111.4 17.73 17.49 4.49c1.4 0.3 1.27 2.36 0 3.04-3.32 1.83-8.82 2.1-14.22 1.69l-2.63-4.19-0.64-5.03z" fill="url(#paint4_linear_290_5284)" stroke="#011E32" stroke-width="1.5"/>
  <path d="m94.65 7.55 17.09-1.17c0.71-0.07 0.88 0.96 0.55 2.05-1.68 4.68-6.22 6.38-13.72 7.06l-4.53-5.37-0.41-1.96 1.02-0.61z" fill="url(#paint5_linear_290_5284)" stroke="#011E32" stroke-width="2.5"/>
  <path d="m74.92 17.94 15.21-9.24c0.84-0.54 1.55-0.06 2.04 0.81l2.55 4.38c0.42 0.82 0.07 1.93-0.75 2.59l-11.02 8.63-7.41-4.98c-1.35-0.82-1.35-1.47-0.62-2.19z" fill="url(#paint6_linear_290_5284)" stroke="#011E32" stroke-width="1.5"/>
  <path d="m89.16 26.37 18-7.33c1.13-0.55 2.02 0 2.57 1.02l1.99 4c0.62 1.27 0.55 3.55-0.99 4.45l-11.41 6.53c-0.96 0.62-2.09 0.28-3.04-0.68l-7.26-6.13c-1.1-1-0.96-1.41 0.14-1.86z" fill="url(#paint7_linear_290_5284)" stroke="#011E32" stroke-width="1.5"/>
  <path d="m64.61 27.16 8.11-6.13 5.41 1.7-7.47 18.19-1.67 4-5.77 0.21-2.28-1 5.5-13.07 0.27-2-2.1-1.9z" fill="url(#paint8_linear_290_5284)" stroke="#011E32" stroke-width="1.5"/>
  <path d="m54.61 48.92 6.05-17.11 1.4-1.47h5.06l-1.1 3.92-5.77 13.78-3.33 1.44-2.31-0.56z" fill="url(#paint9_linear_290_5284)" stroke="#011E32" stroke-width="1.5"/>
  <path d="m49.18 59.91 1.99-7.7 2.21-2.08 4.88-0.41-2.05 9.18-2.09 1.21-4.94-0.2z" fill="url(#paint10_linear_290_5284)" stroke="#011E32" stroke-width="1.5"/>
  <path d="m33.57 101.6 13.41-38.89 2.28-1.01 4.59-0.95 2.21 1.15 5.84 0.2 2.06-0.88 1.67-11.17 2.28-1.96 2.14 1.03 0.89 3.88 6.78-0.07 1.54 3-0.21 7.67-8.93 4.53-16.48 42.49-19.32-9.02h-0.75z" fill="url(#paint11_linear_290_5284)" stroke="#011E32" stroke-width="1.5"/>
  <path d="m32.54 112.9c0.41-3.82 2.2-6.92 3.6-7.67l12.07 6.81c-2.86 1.89-4.47 4.48-5.15 8.04l-10.52-7.18z" fill="url(#paint12_linear_290_5284)" stroke="#011E32" stroke-width="2.5"/>
  <path d="m11.2 138 15.66-23.73 0.55-0.55 15.92 11.17 0.49 4.56-12.88 23.56-19.74 0.07v-15.08z" fill="url(#paint13_linear_290_5284)" stroke="#344551" stroke-width=".5"/>
  <path d="m30.67 153.1 13.76-24.59 2.76-1.47 4.53 5.3 0.34 2.83-8.18 17.93h-13.21z" fill="url(#paint14_linear_290_5284)" stroke="#223E52" stroke-width=".75"/>
  <path d="m47.12 153.1 6.39-14.19 8.66-3.2-5.1 17.39h-9.95z" fill="url(#paint15_linear_290_5284)" stroke="#113143" stroke-width="1.08"/>
  <path d="m46.91 113.4 6.12 3.7-5.1 9.54-5.84-4.49c0-4.3 1.99-6.99 4.82-8.75z" fill="url(#paint16_linear_290_5284)" stroke="#011E32" stroke-width="2.5"/>
  <path d="m62.17 132.1c2.86-3.63 4.6-8.68 1.84-12.4l-4.66-2.28-2.62 3.82 0.41 12.54c1.47 0.89 3.07 0.68 5.03-1.68z" fill="url(#paint17_linear_290_5284)" stroke="#011E32" stroke-width="2"/>
  <path d="m55.14 116 12.47-6.9 0.55-9.18 14.79-14.81 4.18 2.14 7.98 0.96 3.18 1.76-6.12 9.95 1.87 9.31 3.12 1.45c-8.65 5.05-13.99 8.45-22.45 10.44l-5-10.37-8.92 5.73-5.65-0.48z" fill="url(#paint18_linear_290_5284)" stroke="#011E32" stroke-width="2"/>
  <path d="m101.4 91.86 2.76-1.83 9.8-1.28c1.8-0.27 2.83 0.62 2.89 1.95l1.34 5.21-1.13 1.83-14.99 4.07-7.1-2.42 2.8-5.34 3.63-2.19z" fill="url(#paint19_linear_290_5284)" stroke="#011E32" stroke-width="2"/>
  <path d="m120.2 86.21c4.19-3.5 11.48-7.2 16.88-4.91 1.8 0.75 2.72 2.41 2.97 4.56l-13.14 13.33-4.35-7.87-2.36-2.69v-2.42z" fill="url(#paint20_linear_290_5284)" stroke="#011E32" stroke-width="2"/>
  <path d="m70.32 51.6 6.39-7.59 6.24-10.7 0.96-3.4 2.93-0.68 2.87 0.89 4.05 5.99 0.75 3.09-5.63 14.22-2.79 1.51-3 0.28-3-1.79-4.18-3.36-5.59 1.54z" fill="url(#paint21_linear_290_5284)" stroke="#011E32" stroke-width="2"/>
  <path d="m79.26 66.86 3.06 0.41 4.47-0.14-0.48 10.63-3.99 1.48-1.8 1.83-1.26-14.21z" fill="url(#paint22_linear_290_5284)" stroke="#011E32" stroke-width="2"/>
  <path d="m53.85 113.2 9.13-4.03-0.74-8.12 5.47-11.35 11.96-8 1.06-6.66 0.21-7.33-1.76-2.69-8.72 5.15-16.61 43.03z" fill="url(#paint23_linear_290_5284)" stroke="#2B4C60" stroke-width="1.08"/>
  <path d="m65.14 63.33 2.29-8.71 4.39-2.49 5.1 1.69-4.26 11.96-3.88 0.95-3.64-3.4z" fill="url(#paint24_linear_290_5284)" stroke="#011E32" stroke-width="1.5"/>
  <path d="m59.21 49.06 3.6-0.96 4.18 1.44-2.06 6.4-2.56 2.35-4.32-0.85 1.16-8.38z" fill="url(#paint25_linear_290_5284)" stroke="#011E32" stroke-width="1.5"/>
  <path d="m71.08 23.93 5.36 1.03-5.7 17.06-1.61 4.9-4.96-1.18 6.91-21.81z" fill="url(#paint26_linear_290_5284)" stroke="#011E32" stroke-width="1.08"/>
  <path d="m120 90.05c1.29 0 2.01 0.86 1.81 2.09-0.25 1.47-1.75 2.58-3.23 2.31-1.12-0.23-1.54-1.53-0.92-2.93 0.41-0.89 1.23-1.47 2.34-1.47z" fill="url(#paint27_linear_290_5284)" stroke="#011E32" stroke-width="1.5"/>
  <path d="m84.46 69.91c-3.7 0-6.19-3.85-5.88-7.19 0.34-3.76 3.03-6.04 6.02-5.97 3.46 0.07 4.97 3.36 4.76 6.39-0.2 3.32-2.3 6.77-4.9 6.77z" fill="url(#paint28_linear_290_5284)" stroke="#011E32" stroke-width="2.5"/>
  <path d="m84.46 66.32c-2.07 0-3.45-1.96-3.27-3.8 0.22-2.21 1.76-3.49 3.48-3.44 1.96 0.05 2.84 1.88 2.74 3.64-0.14 1.89-1.27 3.6-2.95 3.6z" fill="url(#paint29_linear_290_5284)" stroke="#011E32" stroke-width="1.08"/>
  <path d="m94.45 36.93c-2.07 0-3.77-2.02-3.56-3.86 0.24-2.21 1.85-3.3 3.56-3.23 1.96 0.07 2.78 1.74 2.64 3.5-0.17 1.89-1.16 3.59-2.64 3.59z" fill="url(#paint30_linear_290_5284)" stroke="#011E32" stroke-width="2.16"/>
  <path d="m80.73 27.89c-1.99 0-3.01-2.02-2.87-3.56 0.2-1.83 1.47-2.79 2.8-2.73 1.61 0.07 2.5 1.54 2.36 3.01-0.14 1.55-0.96 3.28-2.29 3.28z" fill="url(#paint31_linear_290_5284)" stroke="#011E32" stroke-width="1.5"/>
  <path d="m96.14 16.1c-1.99 0-3.02-1.76-2.88-3.23 0.2-1.76 1.33-2.62 2.67-2.55 1.6 0.07 2.43 1.41 2.29 2.89-0.14 1.4-0.75 2.89-2.08 2.89z" fill="url(#paint32_linear_290_5284)" stroke="#011E32" stroke-width="1.5"/>
  <path d="m111.6 29.03c-1.99-0.35-3.19-2.73-2.78-4.42 0.52-2.12 2.1-2.94 3.7-2.66 1.89 0.37 2.71 2.26 2.22 4.01-0.45 1.65-1.48 3.37-3.14 3.07z" fill="url(#paint33_linear_290_5284)" stroke="#011E32" stroke-width="2"/>
  <path d="m53.78 106.3 0.07 1.1 0.89 0.61 1.06-0.41 0.55-1.1-0.72-1.09h-1.17l-0.68 0.89z" fill="url(#paint34_linear_290_5284)" stroke="#011E32" stroke-width="1.08"/>
  <path d="m84.88 93.2 0.41 0.78 0.92 0.34 0.92-0.61 0.28-1.1-0.79-0.88-1.2 0.13-0.54 1.34z" fill="url(#paint35_linear_290_5284)" stroke="#011E32" stroke-width=".54"/>
  <path d="m73.54 104.6 0.28 1.1 0.89 0.48 1.06-0.61 0.34-1.31-0.99-0.89-1.23 0.27-0.35 0.96z" fill="url(#paint36_linear_290_5284)" stroke="#011E32" stroke-width=".54"/>
  <path d="m55.14 131.5c-4.72-0.48-7.07-4.68-6.86-8.09 0.27-4.31 3.24-6.72 6.8-6.72 4.05 0 6.88 3.3 6.88 7.4 0 3.69-2.69 7.82-6.82 7.41z" fill="url(#paint37_linear_290_5284)" stroke="#011E32" stroke-width="2.5"/>
  <path d="m55.22 128.1c-2.55-0.34-3.88-2.66-3.67-4.63 0.27-2.62 2.1-4.03 4.22-4.03 2.49 0 4.06 2.14 4.06 4.52 0 2.21-1.77 4.49-4.61 4.14z" fill="url(#paint38_linear_290_5284)" stroke="#011E32" stroke-width="1.08"/>
  <path d="m35.58 127.4 0.49-0.34 0.27-0.82 1.03-0.2 0.96 0.61 0.2 1.1-0.82 0.96-1.23 0.13-0.9-1.44z" fill="url(#paint39_linear_290_5284)" stroke="#011E32" stroke-width=".75"/>
  <path d="m39.56 145.1 0.48-1.1 1.23-0.48 1.37 0.62 0.42 1.47-0.83 1.41h-2.39l-0.28-1.92z" stroke="#51A2C9" stroke-width="1.08"/>
  <path d="m43.67 137.7 0.56-1.1 1.03-0.41 1.13 0.82 0.24 1.48-1.02 1.2-1.66-0.27-0.28-1.72z" stroke="#51A2C9" stroke-width="1.08"/>
  <path d="m79.05 89.03-1.54 1.88-1.27 0.48-1.19-1.2 0.21-1.37 1.47-0.68 5.03-3.89" stroke="#51A2C9" stroke-width="1.08"/>
  <path d="m65.83 118.6 3.09-1.87" stroke="#51A2C9" stroke-width="2.5"/>
  <path d="m66.92 121.8 3.74-2.13" stroke="#51A2C9" stroke-width="2.5"/>
  <path d="m94.11 100.8 5.91-0.65 1.17 6-4.78 1.48-2.3-6.83z" fill="url(#paint40_linear_290_5284)" stroke="#011E32" stroke-width="2"/>
  <path d="m118.5 95.3 4.53-2.38 1.99 4-4.18 2.69-2.34-4.31z" fill="url(#paint41_linear_290_5284)" stroke="#011E32" stroke-width="1.5"/>
  <path d="m101.4 95.84 14.33-3.3" stroke="#2B4C60" stroke-width="1.08"/>
  <path d="m123 88.01 9.66-5.72c2.35-1.37 4.63-1.16 6.1 0.92" stroke="#97ABB5" stroke-width=".75"/>
  <path d="m111.6 24.54 0.31 0.58 0.79 0.14 0.49-0.72-0.35-0.75-0.93-0.07-0.31 0.82z" fill="url(#paint42_linear_290_5284)" stroke="#011E32" stroke-width=".54"/>
  <path d="m93.63 33.68 0.48-0.61 0.82 0.07 0.42 0.82-0.62 0.75-0.96-0.21-0.14-0.82z" fill="url(#paint43_linear_290_5284)" stroke="#011E32" stroke-width=".54"/>
  <path d="m80.01 24.54 0.28-0.82 0.92-0.2 0.62 0.75-0.28 0.96-1.02 0.28-0.52-0.97z" fill="url(#paint44_linear_290_5284)" stroke="#011E32" stroke-width=".54"/>
  <path d="m95.07 12.8 0.35-0.68h0.92l0.48 0.82-0.48 0.82-0.96-0.07-0.31-0.89z" fill="url(#paint45_linear_290_5284)" stroke="#011E32" stroke-width=".54"/>
  <path d="m119 91.45 0.49-0.41 0.72 0.21 0.2 0.82-0.72 0.54-0.75-0.41 0.06-0.75z" fill="url(#paint46_linear_290_5284)" stroke="#011E32" stroke-width=".54"/>
  <path d="m40.19 152.8 4.75-9.54 1.69 1.54 5.29-10.63" stroke="#2178A6" stroke-width="1.08"/>
  <path d="m11.27 143.9 16.69-27 1.41 0.21-18.1 29.71v-2.92z" fill="#97ABB5"/>
  <path d="m35.66 109 1.57 0.82c-1.99 2.15-3.01 4.59-3.46 6.49l-1.3-0.96c0.55-2.69 1.82-5.04 3.19-6.35z" stroke="#274A61" stroke-width="1.08"/>
  <path d="m39.56 110.6 1.67 0.85c-2.14 1.77-3.45 4.22-3.87 6.18l-1.23-0.96c0.72-2.56 1.92-4.52 3.43-6.07z" stroke="#274A61" stroke-width="1.08"/>
  <path d="m43.06 112.6 1.67 0.85c-2.15 1.41-3.49 3.66-3.91 5.62l-1.26-0.94c0.75-2.56 1.95-4.26 3.5-5.53z" stroke="#274A61" stroke-width="1.08"/>
  <path d="m34.94 101.5 13.82-37.93 2.48-1.09-15.45 39.43-0.85-0.41z" fill="#97ABB5"/>
  <path d="m53.85 63.14 3.86 0.47 1.41 0.41-5.07 13.64-0.2-14.52z" fill="#97ABB5"/>
  <path d="m54.12 83.76 9.77-18.52 1.47 0.75-11.24 21.96v-4.19z" fill="#97ABB5"/>
  <path d="m74.99 39.34 2.73-10.01 1.2 0.38-5.24 13.51 1.31-3.88z" fill="#97ABB5"/>
  <path d="m75.63 48.24 10.46-16.32 2.38 0.89-10.34 17.32-2.5-1.89z" fill="#97ABB5"/>
  <path d="m85.21 54.21 1.51-5.35 1.03 0.48-2.54 4.87z" fill="#97ABB5"/>
  <path d="m86.65 28.51 2.17 1.13" stroke="#011E32" stroke-width="2"/>
  <path d="m90.21 29.54 1.67 1.59" stroke="#011E32" stroke-width="2"/>
  <path d="m73.54 20.75 3.29 0.92" stroke="#011E32" stroke-width="2"/>
  <path d="m93.77 8.16 3.19 2.56" stroke="#011E32" stroke-width="2"/>
  <path d="m112.3 20.13 1.45 2.36" stroke="#011E32" stroke-width="2"/>
  <path d="m114.8 26.16 13.21-1.1" stroke="#426577" stroke-width=".75"/>
  <path d="m92.4 25.19 15.55-4.44 0.89 1.4-14.05 5.88-2.39-2.84z" fill="#97ABB5"/>
  <path d="m30.22 159c4.99 0 6.48 2.81 6.4 7.43h-5.91c0-1.84-0.58-2.12-2.2-2.12h-8.72c-1.3 0-2.05 0.55-2.05 2.25 0 1.9 0.75 1.97 2.02 2.07l9.89 0.68c5.26 0.41 6.97 1.4 6.97 6.87 0 4.78-1.51 7.13-6.9 7.13h-11.43c-5.37 0-7.36-2.38-7.36-7.99h5.8c0 1.55 1.16 2.37 2.64 2.37h8.35c2.21 0 3.06-0.55 3.06-2.28 0-1.54-0.62-2.23-3.41-2.47l-8.56-0.68c-5.54-0.48-7.6-1.1-7.6-6.5 0-4.5 2.32-6.76 7.71-6.76h11.3z" fill="#001526"/>
  <path d="m46.47 159.2v9.32h3.95l7.91-9.32h8.38l-11.08 11.57 11.22 12.33h-8.12l-8.38-10h-3.74v10h-6.19v-23.9h6.05z" fill="#001526"/>
  <path d="m73.96 159.2 6.33 9.66 6.5-9.66h7.32l-10.66 14.52v9.45h-6.22v-9.45l-10.66-14.52h7.39z" fill="#001526"/>
  <path d="m104.1 159.2 11.77 15.65v-15.65h6.22v23.9h-7.45l-12.21-16.4v16.4h-6.64v-23.9h8.31z" fill="#001526"/>
  <path d="m148.5 159.2v5.04h-15.79v4.21h14.32v4.55h-14.32v5.05h16.07v5.12h-22.36v-23.97h22.08z" fill="#001526"/>
  <path d="m175.8 159.2v5.31h-8.79v18.66h-6.22v-18.66h-9.22v-5.31h24.23z" fill="#001526"/>
  <defs>
    <linearGradient id="paint0_linear_290_5284" x1="138.7" x2="138.7" y1="28.23" y2="80.47" gradientUnits="userSpaceOnUse">
      <stop stop-color="#628494" offset="0"/>
      <stop stop-color="#002A41" offset="1"/>
    </linearGradient>
    <linearGradient id="paint1_linear_290_5284" x1="138.8" x2="138.8" y1="34.71" y2="72.71" gradientUnits="userSpaceOnUse">
      <stop stop-color="#29506A" offset="0"/>
      <stop stop-color="#002A41" offset="1"/>
    </linearGradient>
    <linearGradient id="paint2_linear_290_5284" x1="138.9" x2="138.9" y1="36.93" y2="70.9" gradientUnits="userSpaceOnUse">
      <stop stop-color="#002A41" offset="0"/>
      <stop stop-color="#628494" offset="1"/>
    </linearGradient>
    <linearGradient id="paint3_linear_290_5284" x1="138.7" x2="138.7" y1="49.62" y2="58.39" gradientUnits="userSpaceOnUse">
      <stop stop-color="#C1D0D6" offset="0"/>
      <stop stop-color="#93B0BC" offset="1"/>
    </linearGradient>
    <linearGradient id="paint4_linear_290_5284" x1="120" x2="120" y1="17.73" y2="28.62" gradientUnits="userSpaceOnUse">
      <stop stop-color="#97ABB5" offset="0"/>
      <stop stop-color="#002A41" offset="1"/>
    </linearGradient>
    <linearGradient id="paint5_linear_290_5284" x1="102.9" x2="102.9" y1="6.293" y2="15.73" gradientUnits="userSpaceOnUse">
      <stop stop-color="#97ABB5" offset="0"/>
      <stop stop-color="#002A41" offset="1"/>
    </linearGradient>
    <linearGradient id="paint6_linear_290_5284" x1="84.6" x2="84.6" y1="8.227" y2="25.12" gradientUnits="userSpaceOnUse">
      <stop stop-color="#97ABB5" offset="0"/>
      <stop stop-color="#002A41" offset="1"/>
    </linearGradient>
    <linearGradient id="paint7_linear_290_5284" x1="100.6" x2="100.6" y1="18.7" y2="35.62" gradientUnits="userSpaceOnUse">
      <stop stop-color="#97ABB5" offset="0"/>
      <stop stop-color="#002A41" offset="1"/>
    </linearGradient>
    <linearGradient id="paint8_linear_290_5284" x1="70.62" x2="70.62" y1="20.55" y2="45.4" gradientUnits="userSpaceOnUse">
      <stop stop-color="#97ABB5" offset="0"/>
      <stop stop-color="#002A41" offset="1"/>
    </linearGradient>
    <linearGradient id="paint9_linear_290_5284" x1="60.94" x2="60.94" y1="30.07" y2="49.48" gradientUnits="userSpaceOnUse">
      <stop stop-color="#97ABB5" offset="0"/>
      <stop stop-color="#002A41" offset="1"/>
    </linearGradient>
    <linearGradient id="paint10_linear_290_5284" x1="53.73" x2="53.73" y1="49.48" y2="60.76" gradientUnits="userSpaceOnUse">
      <stop stop-color="#97ABB5" offset="0"/>
      <stop stop-color="#002A41" offset="1"/>
    </linearGradient>
    <linearGradient id="paint11_linear_290_5284" x1="56.73" x2="56.73" y1="47.57" y2="111.1" gradientUnits="userSpaceOnUse">
      <stop stop-color="#97ABB5" offset="0"/>
      <stop stop-color="#FEFFFE" offset=".3542"/>
      <stop stop-color="#97ABB5" offset=".6406"/>
      <stop stop-color="#002A41" offset="1"/>
    </linearGradient>
    <linearGradient id="paint12_linear_290_5284" x1="39.77" x2="39.77" y1="104.7" y2="120.4" gradientUnits="userSpaceOnUse">
      <stop stop-color="#002A41" offset="0"/>
      <stop stop-color="#628494" offset="1"/>
    </linearGradient>
    <linearGradient id="paint13_linear_290_5284" x1="21.87" x2="28.02" y1="113.3" y2="154.1" gradientUnits="userSpaceOnUse">
      <stop stop-color="#FEFFFE" offset="0"/>
      <stop stop-color="#97ABB5" offset=".4948"/>
      <stop stop-color="#274A61" offset="1"/>
    </linearGradient>
    <linearGradient id="paint14_linear_290_5284" x1="41.27" x2="41.27" y1="126.8" y2="153.2" gradientUnits="userSpaceOnUse">
      <stop stop-color="#006791" offset="0"/>
      <stop stop-color="#47667A" offset="1"/>
    </linearGradient>
    <linearGradient id="paint15_linear_290_5284" x1="54.64" x2="54.64" y1="135.7" y2="153.1" gradientUnits="userSpaceOnUse">
      <stop stop-color="#97ABB5" offset="0"/>
      <stop stop-color="#006791" offset="1"/>
    </linearGradient>
    <linearGradient id="paint16_linear_290_5284" x1="46.43" x2="46.43" y1="112.9" y2="127.1" gradientUnits="userSpaceOnUse">
      <stop stop-color="#002A41" offset="0"/>
      <stop stop-color="#628494" offset="1"/>
    </linearGradient>
    <linearGradient id="paint17_linear_290_5284" x1="59.66" x2="59.66" y1="116.9" y2="133.8" gradientUnits="userSpaceOnUse">
      <stop stop-color="#002A41" offset="0"/>
      <stop stop-color="#628494" offset="1"/>
    </linearGradient>
    <linearGradient id="paint18_linear_290_5284" x1="76.67" x2="76.67" y1="87.05" y2="121.7" gradientUnits="userSpaceOnUse">
      <stop stop-color="#FEFFFE" offset="0"/>
      <stop stop-color="#97ABB5" offset=".25"/>
      <stop stop-color="#627481" offset=".6406"/>
      <stop stop-color="#002A41" offset="1"/>
    </linearGradient>
    <linearGradient id="paint19_linear_290_5284" x1="106.6" x2="106.6" y1="88.62" y2="102.5" gradientUnits="userSpaceOnUse">
      <stop stop-color="#FEFFFE" offset="0"/>
      <stop stop-color="#97ABB5" offset=".25"/>
      <stop stop-color="#627481" offset=".6406"/>
      <stop stop-color="#002A41" offset="1"/>
    </linearGradient>
    <linearGradient id="paint20_linear_290_5284" x1="129.7" x2="129.7" y1="80.74" y2="99.67" gradientUnits="userSpaceOnUse">
      <stop stop-color="#FEFFFE" offset="0"/>
      <stop stop-color="#97ABB5" offset=".25"/>
      <stop stop-color="#627481" offset=".6406"/>
      <stop stop-color="#002A41" offset="1"/>
    </linearGradient>
    <linearGradient id="paint21_linear_290_5284" x1="82.95" x2="82.95" y1="28.71" y2="55.77" gradientUnits="userSpaceOnUse">
      <stop stop-color="#FEFFFE" offset="0"/>
      <stop stop-color="#97ABB5" offset=".25"/>
      <stop stop-color="#627481" offset=".6406"/>
      <stop stop-color="#002A41" offset="1"/>
    </linearGradient>
    <linearGradient id="paint22_linear_290_5284" x1="83.42" x2="83.42" y1="66.73" y2="82.12" gradientUnits="userSpaceOnUse">
      <stop stop-color="#627481" offset="0"/>
      <stop stop-color="#002A41" offset="1"/>
    </linearGradient>
    <linearGradient id="paint23_linear_290_5284" x1="66.85" x2="66.85" y1="64.54" y2="113.8" gradientUnits="userSpaceOnUse">
      <stop stop-color="#97ABB5" offset="0"/>
      <stop stop-color="#627481" offset=".4948"/>
      <stop stop-color="#002A41" offset="1"/>
    </linearGradient>
    <linearGradient id="paint24_linear_290_5284" x1="71.75" x2="71.75" y1="51.6" y2="67.13" gradientUnits="userSpaceOnUse">
      <stop stop-color="#FEFFFE" offset="0"/>
      <stop stop-color="#97ABB5" offset=".25"/>
      <stop stop-color="#627481" offset=".6406"/>
      <stop stop-color="#002A41" offset="1"/>
    </linearGradient>
    <linearGradient id="paint25_linear_290_5284" x1="62.6" x2="62.6" y1="47.7" y2="58.64" gradientUnits="userSpaceOnUse">
      <stop stop-color="#FEFFFE" offset="0"/>
      <stop stop-color="#97ABB5" offset=".25"/>
      <stop stop-color="#627481" offset=".6406"/>
      <stop stop-color="#002A41" offset="1"/>
    </linearGradient>
    <linearGradient id="paint26_linear_290_5284" x1="70.45" x2="70.45" y1="23.93" y2="46.91" gradientUnits="userSpaceOnUse">
      <stop stop-color="#FEFFFE" offset="0"/>
      <stop stop-color="#97ABB5" offset=".25"/>
      <stop stop-color="#627481" offset=".6406"/>
      <stop stop-color="#002A41" offset="1"/>
    </linearGradient>
    <linearGradient id="paint27_linear_290_5284" x1="119.7" x2="119.7" y1="89.44" y2="94.76" gradientUnits="userSpaceOnUse">
      <stop stop-color="#627481" offset="0"/>
      <stop stop-color="#002A41" offset="1"/>
    </linearGradient>
    <linearGradient id="paint28_linear_290_5284" x1="83.91" x2="83.91" y1="55.7" y2="70.98" gradientUnits="userSpaceOnUse">
      <stop stop-color="#627481" offset="0"/>
      <stop stop-color="#002A41" offset="1"/>
    </linearGradient>
    <linearGradient id="paint29_linear_290_5284" x1="83.75" x2="83.75" y1="58.54" y2="66.86" gradientUnits="userSpaceOnUse">
      <stop stop-color="#97ABB5" offset="0"/>
      <stop stop-color="#002A41" offset="1"/>
    </linearGradient>
    <linearGradient id="paint30_linear_290_5284" x1="94.11" x2="94.11" y1="28.61" y2="37.38" gradientUnits="userSpaceOnUse">
      <stop stop-color="#627481" offset="0"/>
      <stop stop-color="#002A41" offset="1"/>
    </linearGradient>
    <linearGradient id="paint31_linear_290_5284" x1="80.26" x2="80.26" y1="20.55" y2="28.44" gradientUnits="userSpaceOnUse">
      <stop stop-color="#627481" offset="0"/>
      <stop stop-color="#002A41" offset="1"/>
    </linearGradient>
    <linearGradient id="paint32_linear_290_5284" x1="95.72" x2="95.72" y1="9.316" y2="16.64" gradientUnits="userSpaceOnUse">
      <stop stop-color="#627481" offset="0"/>
      <stop stop-color="#002A41" offset="1"/>
    </linearGradient>
    <linearGradient id="paint33_linear_290_5284" x1="111.8" x2="111.8" y1="20.55" y2="29.57" gradientUnits="userSpaceOnUse">
      <stop stop-color="#627481" offset="0"/>
      <stop stop-color="#002A41" offset="1"/>
    </linearGradient>
    <linearGradient id="paint34_linear_290_5284" x1="54.17" x2="54.17" y1="105.7" y2="108.3" gradientUnits="userSpaceOnUse">
      <stop stop-color="#627481" offset="0"/>
      <stop stop-color="#002A41" offset="1"/>
    </linearGradient>
    <linearGradient id="paint35_linear_290_5284" x1="85.97" x2="85.97" y1="91.24" y2="94.54" gradientUnits="userSpaceOnUse">
      <stop stop-color="#627481" offset="0"/>
      <stop stop-color="#002A41" offset="1"/>
    </linearGradient>
    <linearGradient id="paint36_linear_290_5284" x1="74.87" x2="74.87" y1="103.1" y2="106.8" gradientUnits="userSpaceOnUse">
      <stop stop-color="#627481" offset="0"/>
      <stop stop-color="#002A41" offset="1"/>
    </linearGradient>
    <linearGradient id="paint37_linear_290_5284" x1="55.14" x2="55.14" y1="115.6" y2="132.9" gradientUnits="userSpaceOnUse">
      <stop stop-color="#627481" offset="0"/>
      <stop stop-color="#002A41" offset="1"/>
    </linearGradient>
    <linearGradient id="paint38_linear_290_5284" x1="55.22" x2="55.22" y1="118.5" y2="128.6" gradientUnits="userSpaceOnUse">
      <stop stop-color="#627481" offset="0"/>
      <stop stop-color="#002A41" offset="1"/>
    </linearGradient>
    <linearGradient id="paint39_linear_290_5284" x1="37.05" x2="37.05" y1="125.8" y2="129.1" gradientUnits="userSpaceOnUse">
      <stop stop-color="#627481" offset="0"/>
      <stop stop-color="#002A41" offset="1"/>
    </linearGradient>
    <linearGradient id="paint40_linear_290_5284" x1="97.51" x2="97.51" y1="99.05" y2="108.5" gradientUnits="userSpaceOnUse">
      <stop stop-color="#627481" offset="0"/>
      <stop stop-color="#002A41" offset="1"/>
    </linearGradient>
    <linearGradient id="paint41_linear_290_5284" x1="121.8" x2="121.8" y1="92.07" y2="100.1" gradientUnits="userSpaceOnUse">
      <stop stop-color="#627481" offset="0"/>
      <stop stop-color="#002A41" offset="1"/>
    </linearGradient>
    <linearGradient id="paint42_linear_290_5284" x1="112.4" x2="112.4" y1="23.29" y2="25.8" gradientUnits="userSpaceOnUse">
      <stop stop-color="#627481" offset="0"/>
      <stop stop-color="#002A41" offset="1"/>
    </linearGradient>
    <linearGradient id="paint43_linear_290_5284" x1="94.48" x2="94.48" y1="32.62" y2="35.31" gradientUnits="userSpaceOnUse">
      <stop stop-color="#627481" offset="0"/>
      <stop stop-color="#002A41" offset="1"/>
    </linearGradient>
    <linearGradient id="paint44_linear_290_5284" x1="80.91" x2="80.91" y1="22.91" y2="25.96" gradientUnits="userSpaceOnUse">
      <stop stop-color="#627481" offset="0"/>
      <stop stop-color="#002A41" offset="1"/>
    </linearGradient>
    <linearGradient id="paint45_linear_290_5284" x1="95.85" x2="95.85" y1="11.66" y2="14.88" gradientUnits="userSpaceOnUse">
      <stop stop-color="#627481" offset="0"/>
      <stop stop-color="#002A41" offset="1"/>
    </linearGradient>
    <linearGradient id="paint46_linear_290_5284" x1="119.7" x2="119.7" y1="90.54" y2="93.12" gradientUnits="userSpaceOnUse">
      <stop stop-color="#627481" offset="0"/>
      <stop stop-color="#002A41" offset="1"/>
    </linearGradient>
  </defs>
</svg>