<svg xmlns="http://www.w3.org/2000/svg" width="188" height="188" fill="none" viewBox="0 0 188 188"><title>Skynet</title><path fill="#011e32" d="m10.93 135 14.57-23.32 1.89-1.54 2.09 1.44 3.81-7.01-2.48-1.76 15.52-42.05 1.33-.49 2.35-9.11 3.53-2.69 6.98-18 2.63-2 .21-2.28 10.05-7.81.37-1.51L89.71 7.1l1.9-1.01 21.2-1.37.64.06.4.2c.97 1.57 1.59 5.43-1.32 8.7-2.9 3.27-8.09 4.02-12.46 4.37l-4.72.3-8.22 7.01 2.93.42 17.03-8.09 2.35 1.21 20.39 3.07c3.05.82 1.54 6.88-1.95 8.79-4.48 2.42-10.49 2.57-14.75.9l-2.93-1.45-11.02 7.15-2.02-.34-.95-1-6.08 18.67-1.99 1.54c1.67 1.85 3.17 5.89.81 10.93l-.81 1.76-.33 10.01 6.91 8.83 4.19 2.11 1.33 1 2.7-.82 1.67-.87 11.67-1.27 2.28-2.83c3.52-2.86 9.05-6.15 15.83-5.4 4.52.52 6.05 2.47 7.33 6.6l-.43.81c-6.38 5.59-10.56 10.66-14.15 14.48l-1.6-.1-2.93 3.35-1.74.13-17.22 6.52-1.33-.68-1.48 1.76-2 .07c-7.36 4.37-15.11 9.15-24.55 11.2l-1.83-1.83-4.4 3.21c-.45 4.1-2.25 6.81-4.7 9.38l2.05 1.83-7.23 16.74H10.93z"/><path fill="url(#skynet__paint0_linear_290_5284)" d="M124.2 30.79v2.62h-2.76c-3.16 0-5.23 2.76-5.23 5.65v1.07h-3.81v1l3.81.41v2.14h-4.22v1l4.22.34v2.14h-4.22v1l4.22.49v2.07h-4.22v1l4.22.49v2.14l-3.81.41v1h3.81v2.15l-3.81.41v1h3.81v2.14l-4.22.49v1h4.22v2.14l-4.22.42v1h4.22v1.35c0 3.16 2.62 6.09 6.04 6.09h1.46v6.52h1l1.06-6.05h2.14l.41 5.71h1l.49-5.71h2.14l.41 5.71h1l.55-5.71h2.14l.41 5.71h1l.49-5.71h2.14l.48 5.71h1l.49-5.71h2.14l.49 5.71h1l.41-5.71h2.14l.41 5.71h1l.55-5.71h1.7l.62 6.05h1v-6.52h.62c3.3 0 5.74-2.69 5.74-5.62v-.27h5.54v-1l-4.46-.41v-1.6h4.46v-1l-4.46-.41v-2.08h4.46v-1l-4.46-.55v-2.07h4.46v-1l-4.46-.49v-2.14h4.46v-1l-4.46-.49v-2.14h4.46v-1l-4.46-.48v-2.14h4.46v-1l-4.46-.49v-2.14h4.46v-1l-4.46-.41v-1.89h4.46v-1h-5.4v-.88c0-2.93-2.69-5.31-5.49-5.31h-.69v-4.71h-1l-.81 4.71h-1.96l-.41-4.71h-1l-.62 4.71h-1.7l-.49-4.71h-1l-.55 4.71h-2.14l-.41-4.71h-1l-.62 4.71h-1.99l-.49-4.71h-1l-.62 4.71h-2.14l-.42-4.71h-1l-.75 4.71h-2.07l-.82-4.49h-1v4.49h-2.63v-2.15z"/><path fill="url(#skynet__paint1_linear_290_5284)" stroke="#274a61" stroke-width="1.5" d="M124.2 34.71h29.92c3.13 0 4.4 2.32 4.4 4.73v28.87c0 2.8-2.03 4.4-4.6 4.4H124.2c-3.13 0-4.98-2.35-4.98-5.08v-28.5c0-2.66 1.85-4.42 4.98-4.42z"/><path fill="url(#skynet__paint2_linear_290_5284)" stroke="#426577" stroke-width=".75" d="M124.7 36.93h28.5c2.42 0 3.45 1.69 3.45 3.58v27.11c0 2.21-1.54 3.28-3.39 3.28H124.7c-2.41 0-3.55-1.67-3.55-3.69V40.24c0-1.96 1.14-3.31 3.55-3.31z"/><path fill="url(#skynet__paint3_linear_290_5284)" stroke="#628494" stroke-width=".5" d="M134.8 49.89h7.92v8.22h-7.92z"/><path stroke="#628494" stroke-linecap="round" stroke-width="1.08" d="m134.1 40.13-.75.68.37 1.55 4.05 4v3.18m-9.87-7.79-.27.96 1.07.96 5.1 5.12h1.4m-10.1-.83.49-.81 1.61.35 5.1 3.63h1.67m-8.57 2.69.62-.62 1.27.49h6.12m-8.21 8.22.55.41 1.2-1.28 3.67-3.4h1.98m.4 9.48.71.12.56-1.83 3.59-4v-2.28m6.84-19.27.82.85-.55 1.58-5.03 5v2.05m9.76-7.72.89.81-.55 1.48-3.74 4.81v1.7m5.8-3.4.56.62-1 1.01-4.56 4.56h-2.28m7.98.75-.52-.75-1.53.41h-5.54m7.69 7.42-.62.62-1.34-1.41-4.04-3.36h-1.73M145 67.44l-.82.21-.71-2.21-3.71-3.63v-2.27"/><circle cx="128.1" cy="41.82" r="1.542" fill="#628494"/><circle cx="125.5" cy="47.5" r="1.542" fill="#628494"/><circle cx="125.7" cy="53.82" r="1.542" fill="#628494"/><circle cx="126" cy="60.39" r="1.542" fill="#628494"/><circle cx="127.8" cy="66.24" r="1.542" fill="#628494"/><circle cx="145" cy="39.93" r="1.542" fill="#628494"/><circle cx="149.7" cy="42.3" r="1.542" fill="#628494"/><circle cx="152.2" cy="47.16" r="1.542" fill="#628494"/><circle cx="152.7" cy="54.03" r="1.542" fill="#628494"/><circle cx="150.2" cy="66.03" r="1.542" fill="#628494"/><circle cx="144.3" cy="67.51" r="1.542" fill="#628494"/><circle cx="133.6" cy="39.93" r="1.542" fill="#628494"/><path fill="url(#skynet__paint4_linear_290_5284)" stroke="#011e32" stroke-width="1.5" d="m111.4 17.73 17.49 4.49c1.4.3 1.27 2.36 0 3.04-3.32 1.83-8.82 2.1-14.22 1.69l-2.63-4.19z"/><path fill="url(#skynet__paint5_linear_290_5284)" stroke="#011e32" stroke-width="2.5" d="m94.65 7.55 17.09-1.17c.71-.07.88.96.55 2.05-1.68 4.68-6.22 6.38-13.72 7.06l-4.53-5.37-.41-1.96z"/><path fill="url(#skynet__paint6_linear_290_5284)" stroke="#011e32" stroke-width="1.5" d="M74.92 17.94 90.13 8.7c.84-.54 1.55-.06 2.04.81l2.55 4.38c.42.82.07 1.93-.75 2.59l-11.02 8.63-7.41-4.98c-1.35-.82-1.35-1.47-.62-2.19z"/><path fill="url(#skynet__paint7_linear_290_5284)" stroke="#011e32" stroke-width="1.5" d="m89.16 26.37 18-7.33c1.13-.55 2.02 0 2.57 1.02l1.99 4c.62 1.27.55 3.55-.99 4.45l-11.41 6.53c-.96.62-2.09.28-3.04-.68l-7.26-6.13c-1.1-1-.96-1.41.14-1.86z"/><path fill="url(#skynet__paint8_linear_290_5284)" stroke="#011e32" stroke-width="1.5" d="m64.61 27.16 8.11-6.13 5.41 1.7-7.47 18.19-1.67 4-5.77.21-2.28-1 5.5-13.07.27-2z"/><path fill="url(#skynet__paint9_linear_290_5284)" stroke="#011e32" stroke-width="1.5" d="m54.61 48.92 6.05-17.11 1.4-1.47h5.06l-1.1 3.92-5.77 13.78-3.33 1.44z"/><path fill="url(#skynet__paint10_linear_290_5284)" stroke="#011e32" stroke-width="1.5" d="m49.18 59.91 1.99-7.7 2.21-2.08 4.88-.41-2.05 9.18-2.09 1.21z"/><path fill="url(#skynet__paint11_linear_290_5284)" stroke="#011e32" stroke-width="1.5" d="m33.57 101.6 13.41-38.89 2.28-1.01 4.59-.95 2.21 1.15 5.84.2 2.06-.88 1.67-11.17 2.28-1.96 2.14 1.03.89 3.88 6.78-.07 1.54 3-.21 7.67-8.93 4.53-16.48 42.49-19.32-9.02z"/><path fill="url(#skynet__paint12_linear_290_5284)" stroke="#011e32" stroke-width="2.5" d="M32.54 112.9c.41-3.82 2.2-6.92 3.6-7.67l12.07 6.81c-2.86 1.89-4.47 4.48-5.15 8.04z"/><path fill="url(#skynet__paint13_linear_290_5284)" stroke="#344551" stroke-width=".5" d="m11.2 138 15.66-23.73.55-.55 15.92 11.17.49 4.56-12.88 23.56-19.74.07z"/><path fill="url(#skynet__paint14_linear_290_5284)" stroke="#223e52" stroke-width=".75" d="m30.67 153.1 13.76-24.59 2.76-1.47 4.53 5.3.34 2.83-8.18 17.93z"/><path fill="url(#skynet__paint15_linear_290_5284)" stroke="#113143" stroke-width="1.08" d="m47.12 153.1 6.39-14.19 8.66-3.2-5.1 17.39z"/><path fill="url(#skynet__paint16_linear_290_5284)" stroke="#011e32" stroke-width="2.5" d="m46.91 113.4 6.12 3.7-5.1 9.54-5.84-4.49c0-4.3 1.99-6.99 4.82-8.75z"/><path fill="url(#skynet__paint17_linear_290_5284)" stroke="#011e32" stroke-width="2" d="M62.17 132.1c2.86-3.63 4.6-8.68 1.84-12.4l-4.66-2.28-2.62 3.82.41 12.54c1.47.89 3.07.68 5.03-1.68z"/><path fill="url(#skynet__paint18_linear_290_5284)" stroke="#011e32" stroke-width="2" d="m55.14 116 12.47-6.9.55-9.18 14.79-14.81 4.18 2.14 7.98.96 3.18 1.76-6.12 9.95 1.87 9.31 3.12 1.45c-8.65 5.05-13.99 8.45-22.45 10.44l-5-10.37-8.92 5.73z"/><path fill="url(#skynet__paint19_linear_290_5284)" stroke="#011e32" stroke-width="2" d="m101.4 91.86 2.76-1.83 9.8-1.28c1.8-.27 2.83.62 2.89 1.95l1.34 5.21-1.13 1.83-14.99 4.07-7.1-2.42 2.8-5.34z"/><path fill="url(#skynet__paint20_linear_290_5284)" stroke="#011e32" stroke-width="2" d="M120.2 86.21c4.19-3.5 11.48-7.2 16.88-4.91 1.8.75 2.72 2.41 2.97 4.56l-13.14 13.33-4.35-7.87-2.36-2.69z"/><path fill="url(#skynet__paint21_linear_290_5284)" stroke="#011e32" stroke-width="2" d="m70.32 51.6 6.39-7.59 6.24-10.7.96-3.4 2.93-.68 2.87.89 4.05 5.99.75 3.09-5.63 14.22-2.79 1.51-3 .28-3-1.79-4.18-3.36z"/><path fill="url(#skynet__paint22_linear_290_5284)" stroke="#011e32" stroke-width="2" d="m79.26 66.86 3.06.41 4.47-.14-.48 10.63-3.99 1.48-1.8 1.83z"/><path fill="url(#skynet__paint23_linear_290_5284)" stroke="#2b4c60" stroke-width="1.08" d="m53.85 113.2 9.13-4.03-.74-8.12 5.47-11.35 11.96-8 1.06-6.66.21-7.33-1.76-2.69-8.72 5.15z"/><path fill="url(#skynet__paint24_linear_290_5284)" stroke="#011e32" stroke-width="1.5" d="m65.14 63.33 2.29-8.71 4.39-2.49 5.1 1.69-4.26 11.96-3.88.95z"/><path fill="url(#skynet__paint25_linear_290_5284)" stroke="#011e32" stroke-width="1.5" d="m59.21 49.06 3.6-.96 4.18 1.44-2.06 6.4-2.56 2.35-4.32-.85z"/><path fill="url(#skynet__paint26_linear_290_5284)" stroke="#011e32" stroke-width="1.08" d="m71.08 23.93 5.36 1.03-5.7 17.06-1.61 4.9-4.96-1.18z"/><path fill="url(#skynet__paint27_linear_290_5284)" stroke="#011e32" stroke-width="1.5" d="M120 90.05c1.29 0 2.01.86 1.81 2.09-.25 1.47-1.75 2.58-3.23 2.31-1.12-.23-1.54-1.53-.92-2.93.41-.89 1.23-1.47 2.34-1.47z"/><path fill="url(#skynet__paint28_linear_290_5284)" stroke="#011e32" stroke-width="2.5" d="M84.46 69.91c-3.7 0-6.19-3.85-5.88-7.19.34-3.76 3.03-6.04 6.02-5.97 3.46.07 4.97 3.36 4.76 6.39-.2 3.32-2.3 6.77-4.9 6.77z"/><path fill="url(#skynet__paint29_linear_290_5284)" stroke="#011e32" stroke-width="1.08" d="M84.46 66.32c-2.07 0-3.45-1.96-3.27-3.8.22-2.21 1.76-3.49 3.48-3.44 1.96.05 2.84 1.88 2.74 3.64-.14 1.89-1.27 3.6-2.95 3.6z"/><path fill="url(#skynet__paint30_linear_290_5284)" stroke="#011e32" stroke-width="2.16" d="M94.45 36.93c-2.07 0-3.77-2.02-3.56-3.86.24-2.21 1.85-3.3 3.56-3.23 1.96.07 2.78 1.74 2.64 3.5-.17 1.89-1.16 3.59-2.64 3.59z"/><path fill="url(#skynet__paint31_linear_290_5284)" stroke="#011e32" stroke-width="1.5" d="M80.73 27.89c-1.99 0-3.01-2.02-2.87-3.56.2-1.83 1.47-2.79 2.8-2.73 1.61.07 2.5 1.54 2.36 3.01-.14 1.55-.96 3.28-2.29 3.28z"/><path fill="url(#skynet__paint32_linear_290_5284)" stroke="#011e32" stroke-width="1.5" d="M96.14 16.1c-1.99 0-3.02-1.76-2.88-3.23.2-1.76 1.33-2.62 2.67-2.55 1.6.07 2.43 1.41 2.29 2.89-.14 1.4-.75 2.89-2.08 2.89z"/><path fill="url(#skynet__paint33_linear_290_5284)" stroke="#011e32" stroke-width="2" d="M111.6 29.03c-1.99-.35-3.19-2.73-2.78-4.42.52-2.12 2.1-2.94 3.7-2.66 1.89.37 2.71 2.26 2.22 4.01-.45 1.65-1.48 3.37-3.14 3.07z"/><path fill="url(#skynet__paint34_linear_290_5284)" stroke="#011e32" stroke-width="1.08" d="m53.78 106.3.07 1.1.89.61 1.06-.41.55-1.1-.72-1.09h-1.17z"/><path fill="url(#skynet__paint35_linear_290_5284)" stroke="#011e32" stroke-width=".54" d="m84.88 93.2.41.78.92.34.92-.61.28-1.1-.79-.88-1.2.13z"/><path fill="url(#skynet__paint36_linear_290_5284)" stroke="#011e32" stroke-width=".54" d="m73.54 104.6.28 1.1.89.48 1.06-.61.34-1.31-.99-.89-1.23.27z"/><path fill="url(#skynet__paint37_linear_290_5284)" stroke="#011e32" stroke-width="2.5" d="M55.14 131.5c-4.72-.48-7.07-4.68-6.86-8.09.27-4.31 3.24-6.72 6.8-6.72 4.05 0 6.88 3.3 6.88 7.4 0 3.69-2.69 7.82-6.82 7.41z"/><path fill="url(#skynet__paint38_linear_290_5284)" stroke="#011e32" stroke-width="1.08" d="M55.22 128.1c-2.55-.34-3.88-2.66-3.67-4.63.27-2.62 2.1-4.03 4.22-4.03 2.49 0 4.06 2.14 4.06 4.52 0 2.21-1.77 4.49-4.61 4.14z"/><path fill="url(#skynet__paint39_linear_290_5284)" stroke="#011e32" stroke-width=".75" d="m35.58 127.4.49-.34.27-.82 1.03-.2.96.61.2 1.1-.82.96-1.23.13z"/><path stroke="#51a2c9" stroke-width="1.08" d="m39.56 145.1.48-1.1 1.23-.48 1.37.62.42 1.47-.83 1.41h-2.39zm4.11-7.4.56-1.1 1.03-.41 1.13.82.24 1.48-1.02 1.2-1.66-.27zm35.38-48.67-1.54 1.88-1.27.48-1.19-1.2.21-1.37 1.47-.68 5.03-3.89"/><path stroke="#51a2c9" stroke-width="2.5" d="m65.83 118.6 3.09-1.87m-2 5.07 3.74-2.13"/><path fill="url(#skynet__paint40_linear_290_5284)" stroke="#011e32" stroke-width="2" d="m94.11 100.8 5.91-.65 1.17 6-4.78 1.48z"/><path fill="url(#skynet__paint41_linear_290_5284)" stroke="#011e32" stroke-width="1.5" d="m118.5 95.3 4.53-2.38 1.99 4-4.18 2.69z"/><path stroke="#2b4c60" stroke-width="1.08" d="m101.4 95.84 14.33-3.3"/><path stroke="#97abb5" stroke-width=".75" d="m123 88.01 9.66-5.72c2.35-1.37 4.63-1.16 6.1.92"/><path fill="url(#skynet__paint42_linear_290_5284)" stroke="#011e32" stroke-width=".54" d="m111.6 24.54.31.58.79.14.49-.72-.35-.75-.93-.07z"/><path fill="url(#skynet__paint43_linear_290_5284)" stroke="#011e32" stroke-width=".54" d="m93.63 33.68.48-.61.82.07.42.82-.62.75-.96-.21z"/><path fill="url(#skynet__paint44_linear_290_5284)" stroke="#011e32" stroke-width=".54" d="m80.01 24.54.28-.82.92-.2.62.75-.28.96-1.02.28z"/><path fill="url(#skynet__paint45_linear_290_5284)" stroke="#011e32" stroke-width=".54" d="m95.07 12.8.35-.68h.92l.48.82-.48.82-.96-.07z"/><path fill="url(#skynet__paint46_linear_290_5284)" stroke="#011e32" stroke-width=".54" d="m119 91.45.49-.41.72.21.2.82-.72.54-.75-.41z"/><path stroke="#2178a6" stroke-width="1.08" d="m40.19 152.8 4.75-9.54 1.69 1.54 5.29-10.63"/><path fill="#97abb5" d="m11.27 143.9 16.69-27 1.41.21-18.1 29.71z"/><path stroke="#274a61" stroke-width="1.08" d="m35.66 109 1.57.82a14.6 14.6 0 0 0-3.46 6.49l-1.3-.96c.55-2.69 1.82-5.04 3.19-6.35zm3.9 1.6 1.67.85c-2.14 1.77-3.45 4.22-3.87 6.18l-1.23-.96c.72-2.56 1.92-4.52 3.43-6.07zm3.5 2 1.67.85c-2.15 1.41-3.49 3.66-3.91 5.62l-1.26-.94c.75-2.56 1.95-4.26 3.5-5.53z"/><path fill="#97abb5" d="m34.94 101.5 13.82-37.93 2.48-1.09-15.45 39.43zm18.91-38.36 3.86.47 1.41.41-5.07 13.64zm.27 20.62 9.77-18.52 1.47.75-11.24 21.96zm20.87-44.42 2.73-10.01 1.2.38-5.24 13.51zm.64 8.9 10.46-16.32 2.38.89-10.34 17.32zm9.58 5.97 1.51-5.35 1.03.48z"/><path stroke="#011e32" stroke-width="2" d="m86.65 28.51 2.17 1.13m1.39-.1 1.67 1.59M73.54 20.75l3.29.92M93.77 8.16l3.19 2.56m15.34 9.41 1.45 2.36"/><path stroke="#426577" stroke-width=".75" d="m114.8 26.16 13.21-1.1"/><path fill="#97abb5" d="m92.4 25.19 15.55-4.44.89 1.4-14.05 5.88z"/><path fill="#001526" d="M30.22 159c4.99 0 6.48 2.81 6.4 7.43h-5.91c0-1.84-.58-2.12-2.2-2.12h-8.72c-1.3 0-2.05.55-2.05 2.25 0 1.9.75 1.97 2.02 2.07l9.89.68c5.26.41 6.97 1.4 6.97 6.87 0 4.78-1.51 7.13-6.9 7.13H18.29c-5.37 0-7.36-2.38-7.36-7.99h5.8c0 1.55 1.16 2.37 2.64 2.37h8.35c2.21 0 3.06-.55 3.06-2.28 0-1.54-.62-2.23-3.41-2.47l-8.56-.68c-5.54-.48-7.6-1.1-7.6-6.5 0-4.5 2.32-6.76 7.71-6.76zm16.25.2v9.32h3.95l7.91-9.32h8.38l-11.08 11.57 11.22 12.33h-8.12l-8.38-10h-3.74v10h-6.19v-23.9z"/><path fill="#001526" d="m73.96 159.2 6.33 9.66 6.5-9.66h7.32l-10.66 14.52v9.45h-6.22v-9.45L66.57 159.2zm30.14 0 11.77 15.65V159.2h6.22v23.9h-7.45l-12.21-16.4v16.4h-6.64v-23.9zm44.4 0v5.04h-15.79v4.21h14.32V173h-14.32v5.05h16.07v5.12h-22.36V159.2zm27.3 0v5.31h-8.79v18.66h-6.22v-18.66h-9.22v-5.31z"/><defs><linearGradient id="skynet__paint0_linear_290_5284" x1="138.7" x2="138.7" y1="28.23" y2="80.47" gradientUnits="userSpaceOnUse"><stop offset="0" stop-color="#628494"/><stop offset="1" stop-color="#002a41"/></linearGradient><linearGradient id="skynet__paint1_linear_290_5284" x1="138.8" x2="138.8" y1="34.71" y2="72.71" gradientUnits="userSpaceOnUse"><stop offset="0" stop-color="#29506a"/><stop offset="1" stop-color="#002a41"/></linearGradient><linearGradient id="skynet__paint2_linear_290_5284" x1="138.9" x2="138.9" y1="36.93" y2="70.9" gradientUnits="userSpaceOnUse"><stop offset="0" stop-color="#002a41"/><stop offset="1" stop-color="#628494"/></linearGradient><linearGradient id="skynet__paint3_linear_290_5284" x1="138.7" x2="138.7" y1="49.62" y2="58.39" gradientUnits="userSpaceOnUse"><stop offset="0" stop-color="#c1d0d6"/><stop offset="1" stop-color="#93b0bc"/></linearGradient><linearGradient id="skynet__paint4_linear_290_5284" x1="120" x2="120" y1="17.73" y2="28.62" gradientUnits="userSpaceOnUse"><stop offset="0" stop-color="#97abb5"/><stop offset="1" stop-color="#002a41"/></linearGradient><linearGradient id="skynet__paint5_linear_290_5284" x1="102.9" x2="102.9" y1="6.293" y2="15.73" gradientUnits="userSpaceOnUse"><stop offset="0" stop-color="#97abb5"/><stop offset="1" stop-color="#002a41"/></linearGradient><linearGradient id="skynet__paint6_linear_290_5284" x1="84.6" x2="84.6" y1="8.227" y2="25.12" gradientUnits="userSpaceOnUse"><stop offset="0" stop-color="#97abb5"/><stop offset="1" stop-color="#002a41"/></linearGradient><linearGradient id="skynet__paint7_linear_290_5284" x1="100.6" x2="100.6" y1="18.7" y2="35.62" gradientUnits="userSpaceOnUse"><stop offset="0" stop-color="#97abb5"/><stop offset="1" stop-color="#002a41"/></linearGradient><linearGradient id="skynet__paint8_linear_290_5284" x1="70.62" x2="70.62" y1="20.55" y2="45.4" gradientUnits="userSpaceOnUse"><stop offset="0" stop-color="#97abb5"/><stop offset="1" stop-color="#002a41"/></linearGradient><linearGradient id="skynet__paint9_linear_290_5284" x1="60.94" x2="60.94" y1="30.07" y2="49.48" gradientUnits="userSpaceOnUse"><stop offset="0" stop-color="#97abb5"/><stop offset="1" stop-color="#002a41"/></linearGradient><linearGradient id="skynet__paint10_linear_290_5284" x1="53.73" x2="53.73" y1="49.48" y2="60.76" gradientUnits="userSpaceOnUse"><stop offset="0" stop-color="#97abb5"/><stop offset="1" stop-color="#002a41"/></linearGradient><linearGradient id="skynet__paint11_linear_290_5284" x1="56.73" x2="56.73" y1="47.57" y2="111.1" gradientUnits="userSpaceOnUse"><stop offset="0" stop-color="#97abb5"/><stop offset=".354" stop-color="#fefffe"/><stop offset=".641" stop-color="#97abb5"/><stop offset="1" stop-color="#002a41"/></linearGradient><linearGradient id="skynet__paint12_linear_290_5284" x1="39.77" x2="39.77" y1="104.7" y2="120.4" gradientUnits="userSpaceOnUse"><stop offset="0" stop-color="#002a41"/><stop offset="1" stop-color="#628494"/></linearGradient><linearGradient id="skynet__paint13_linear_290_5284" x1="21.87" x2="28.02" y1="113.3" y2="154.1" gradientUnits="userSpaceOnUse"><stop offset="0" stop-color="#fefffe"/><stop offset=".495" stop-color="#97abb5"/><stop offset="1" stop-color="#274a61"/></linearGradient><linearGradient id="skynet__paint14_linear_290_5284" x1="41.27" x2="41.27" y1="126.8" y2="153.2" gradientUnits="userSpaceOnUse"><stop offset="0" stop-color="#006791"/><stop offset="1" stop-color="#47667a"/></linearGradient><linearGradient id="skynet__paint15_linear_290_5284" x1="54.64" x2="54.64" y1="135.7" y2="153.1" gradientUnits="userSpaceOnUse"><stop offset="0" stop-color="#97abb5"/><stop offset="1" stop-color="#006791"/></linearGradient><linearGradient id="skynet__paint16_linear_290_5284" x1="46.43" x2="46.43" y1="112.9" y2="127.1" gradientUnits="userSpaceOnUse"><stop offset="0" stop-color="#002a41"/><stop offset="1" stop-color="#628494"/></linearGradient><linearGradient id="skynet__paint17_linear_290_5284" x1="59.66" x2="59.66" y1="116.9" y2="133.8" gradientUnits="userSpaceOnUse"><stop offset="0" stop-color="#002a41"/><stop offset="1" stop-color="#628494"/></linearGradient><linearGradient id="skynet__paint18_linear_290_5284" x1="76.67" x2="76.67" y1="87.05" y2="121.7" gradientUnits="userSpaceOnUse"><stop offset="0" stop-color="#fefffe"/><stop offset=".25" stop-color="#97abb5"/><stop offset=".641" stop-color="#627481"/><stop offset="1" stop-color="#002a41"/></linearGradient><linearGradient id="skynet__paint19_linear_290_5284" x1="106.6" x2="106.6" y1="88.62" y2="102.5" gradientUnits="userSpaceOnUse"><stop offset="0" stop-color="#fefffe"/><stop offset=".25" stop-color="#97abb5"/><stop offset=".641" stop-color="#627481"/><stop offset="1" stop-color="#002a41"/></linearGradient><linearGradient id="skynet__paint20_linear_290_5284" x1="129.7" x2="129.7" y1="80.74" y2="99.67" gradientUnits="userSpaceOnUse"><stop offset="0" stop-color="#fefffe"/><stop offset=".25" stop-color="#97abb5"/><stop offset=".641" stop-color="#627481"/><stop offset="1" stop-color="#002a41"/></linearGradient><linearGradient id="skynet__paint21_linear_290_5284" x1="82.95" x2="82.95" y1="28.71" y2="55.77" gradientUnits="userSpaceOnUse"><stop offset="0" stop-color="#fefffe"/><stop offset=".25" stop-color="#97abb5"/><stop offset=".641" stop-color="#627481"/><stop offset="1" stop-color="#002a41"/></linearGradient><linearGradient id="skynet__paint22_linear_290_5284" x1="83.42" x2="83.42" y1="66.73" y2="82.12" gradientUnits="userSpaceOnUse"><stop offset="0" stop-color="#627481"/><stop offset="1" stop-color="#002a41"/></linearGradient><linearGradient id="skynet__paint23_linear_290_5284" x1="66.85" x2="66.85" y1="64.54" y2="113.8" gradientUnits="userSpaceOnUse"><stop offset="0" stop-color="#97abb5"/><stop offset=".495" stop-color="#627481"/><stop offset="1" stop-color="#002a41"/></linearGradient><linearGradient id="skynet__paint24_linear_290_5284" x1="71.75" x2="71.75" y1="51.6" y2="67.13" gradientUnits="userSpaceOnUse"><stop offset="0" stop-color="#fefffe"/><stop offset=".25" stop-color="#97abb5"/><stop offset=".641" stop-color="#627481"/><stop offset="1" stop-color="#002a41"/></linearGradient><linearGradient id="skynet__paint25_linear_290_5284" x1="62.6" x2="62.6" y1="47.7" y2="58.64" gradientUnits="userSpaceOnUse"><stop offset="0" stop-color="#fefffe"/><stop offset=".25" stop-color="#97abb5"/><stop offset=".641" stop-color="#627481"/><stop offset="1" stop-color="#002a41"/></linearGradient><linearGradient id="skynet__paint26_linear_290_5284" x1="70.45" x2="70.45" y1="23.93" y2="46.91" gradientUnits="userSpaceOnUse"><stop offset="0" stop-color="#fefffe"/><stop offset=".25" stop-color="#97abb5"/><stop offset=".641" stop-color="#627481"/><stop offset="1" stop-color="#002a41"/></linearGradient><linearGradient id="skynet__paint27_linear_290_5284" x1="119.7" x2="119.7" y1="89.44" y2="94.76" gradientUnits="userSpaceOnUse"><stop offset="0" stop-color="#627481"/><stop offset="1" stop-color="#002a41"/></linearGradient><linearGradient id="skynet__paint28_linear_290_5284" x1="83.91" x2="83.91" y1="55.7" y2="70.98" gradientUnits="userSpaceOnUse"><stop offset="0" stop-color="#627481"/><stop offset="1" stop-color="#002a41"/></linearGradient><linearGradient id="skynet__paint29_linear_290_5284" x1="83.75" x2="83.75" y1="58.54" y2="66.86" gradientUnits="userSpaceOnUse"><stop offset="0" stop-color="#97abb5"/><stop offset="1" stop-color="#002a41"/></linearGradient><linearGradient id="skynet__paint30_linear_290_5284" x1="94.11" x2="94.11" y1="28.61" y2="37.38" gradientUnits="userSpaceOnUse"><stop offset="0" stop-color="#627481"/><stop offset="1" stop-color="#002a41"/></linearGradient><linearGradient id="skynet__paint31_linear_290_5284" x1="80.26" x2="80.26" y1="20.55" y2="28.44" gradientUnits="userSpaceOnUse"><stop offset="0" stop-color="#627481"/><stop offset="1" stop-color="#002a41"/></linearGradient><linearGradient id="skynet__paint32_linear_290_5284" x1="95.72" x2="95.72" y1="9.316" y2="16.64" gradientUnits="userSpaceOnUse"><stop offset="0" stop-color="#627481"/><stop offset="1" stop-color="#002a41"/></linearGradient><linearGradient id="skynet__paint33_linear_290_5284" x1="111.8" x2="111.8" y1="20.55" y2="29.57" gradientUnits="userSpaceOnUse"><stop offset="0" stop-color="#627481"/><stop offset="1" stop-color="#002a41"/></linearGradient><linearGradient id="skynet__paint34_linear_290_5284" x1="54.17" x2="54.17" y1="105.7" y2="108.3" gradientUnits="userSpaceOnUse"><stop offset="0" stop-color="#627481"/><stop offset="1" stop-color="#002a41"/></linearGradient><linearGradient id="skynet__paint35_linear_290_5284" x1="85.97" x2="85.97" y1="91.24" y2="94.54" gradientUnits="userSpaceOnUse"><stop offset="0" stop-color="#627481"/><stop offset="1" stop-color="#002a41"/></linearGradient><linearGradient id="skynet__paint36_linear_290_5284" x1="74.87" x2="74.87" y1="103.1" y2="106.8" gradientUnits="userSpaceOnUse"><stop offset="0" stop-color="#627481"/><stop offset="1" stop-color="#002a41"/></linearGradient><linearGradient id="skynet__paint37_linear_290_5284" x1="55.14" x2="55.14" y1="115.6" y2="132.9" gradientUnits="userSpaceOnUse"><stop offset="0" stop-color="#627481"/><stop offset="1" stop-color="#002a41"/></linearGradient><linearGradient id="skynet__paint38_linear_290_5284" x1="55.22" x2="55.22" y1="118.5" y2="128.6" gradientUnits="userSpaceOnUse"><stop offset="0" stop-color="#627481"/><stop offset="1" stop-color="#002a41"/></linearGradient><linearGradient id="skynet__paint39_linear_290_5284" x1="37.05" x2="37.05" y1="125.8" y2="129.1" gradientUnits="userSpaceOnUse"><stop offset="0" stop-color="#627481"/><stop offset="1" stop-color="#002a41"/></linearGradient><linearGradient id="skynet__paint40_linear_290_5284" x1="97.51" x2="97.51" y1="99.05" y2="108.5" gradientUnits="userSpaceOnUse"><stop offset="0" stop-color="#627481"/><stop offset="1" stop-color="#002a41"/></linearGradient><linearGradient id="skynet__paint41_linear_290_5284" x1="121.8" x2="121.8" y1="92.07" y2="100.1" gradientUnits="userSpaceOnUse"><stop offset="0" stop-color="#627481"/><stop offset="1" stop-color="#002a41"/></linearGradient><linearGradient id="skynet__paint42_linear_290_5284" x1="112.4" x2="112.4" y1="23.29" y2="25.8" gradientUnits="userSpaceOnUse"><stop offset="0" stop-color="#627481"/><stop offset="1" stop-color="#002a41"/></linearGradient><linearGradient id="skynet__paint43_linear_290_5284" x1="94.48" x2="94.48" y1="32.62" y2="35.31" gradientUnits="userSpaceOnUse"><stop offset="0" stop-color="#627481"/><stop offset="1" stop-color="#002a41"/></linearGradient><linearGradient id="skynet__paint44_linear_290_5284" x1="80.91" x2="80.91" y1="22.91" y2="25.96" gradientUnits="userSpaceOnUse"><stop offset="0" stop-color="#627481"/><stop offset="1" stop-color="#002a41"/></linearGradient><linearGradient id="skynet__paint45_linear_290_5284" x1="95.85" x2="95.85" y1="11.66" y2="14.88" gradientUnits="userSpaceOnUse"><stop offset="0" stop-color="#627481"/><stop offset="1" stop-color="#002a41"/></linearGradient><linearGradient id="skynet__paint46_linear_290_5284" x1="119.7" x2="119.7" y1="90.54" y2="93.12" gradientUnits="userSpaceOnUse"><stop offset="0" stop-color="#627481"/><stop offset="1" stop-color="#002a41"/></linearGradient></defs></svg>
